<mxfile host="app.diagrams.net" modified="2022-12-21T11:54:19.243Z" agent="5.0 (Macintosh; Intel Mac OS X 10_15_7) AppleWebKit/537.36 (KHTML, like Gecko) Chrome/108.0.0.0 Safari/537.36" etag="iXBHw35A8wXq9oyOkZdZ" version="20.6.2" type="github">
  <diagram id="C5RBs43oDa-KdzZeNtuy" name="Page-1">
    <mxGraphModel dx="2446" dy="693" grid="1" gridSize="10" guides="1" tooltips="1" connect="1" arrows="1" fold="1" page="1" pageScale="1" pageWidth="827" pageHeight="1169" math="0" shadow="0">
      <root>
        <mxCell id="WIyWlLk6GJQsqaUBKTNV-0" />
        <mxCell id="WIyWlLk6GJQsqaUBKTNV-1" parent="WIyWlLk6GJQsqaUBKTNV-0" />
        <mxCell id="ti8c8m-xJgNzPXHYwZrE-12" style="edgeStyle=orthogonalEdgeStyle;rounded=0;orthogonalLoop=1;jettySize=auto;html=1;" parent="WIyWlLk6GJQsqaUBKTNV-1" source="WIyWlLk6GJQsqaUBKTNV-3" edge="1">
          <mxGeometry relative="1" as="geometry">
            <mxPoint x="300" y="110" as="targetPoint" />
          </mxGeometry>
        </mxCell>
        <mxCell id="ThD12zC5yq8MOeCrIUyT-1" style="edgeStyle=orthogonalEdgeStyle;rounded=0;orthogonalLoop=1;jettySize=auto;html=1;" edge="1" parent="WIyWlLk6GJQsqaUBKTNV-1" source="WIyWlLk6GJQsqaUBKTNV-3" target="ThD12zC5yq8MOeCrIUyT-0">
          <mxGeometry relative="1" as="geometry">
            <Array as="points">
              <mxPoint x="525" y="50" />
            </Array>
          </mxGeometry>
        </mxCell>
        <mxCell id="WIyWlLk6GJQsqaUBKTNV-3" value="Forbidden forest&amp;nbsp;" style="rounded=1;whiteSpace=wrap;html=1;fontSize=12;glass=0;strokeWidth=1;shadow=0;" parent="WIyWlLk6GJQsqaUBKTNV-1" vertex="1">
          <mxGeometry x="354" y="30" width="120" height="40" as="geometry" />
        </mxCell>
        <mxCell id="ti8c8m-xJgNzPXHYwZrE-0" value="Left:&lt;br&gt;&quot;You see a great tree&quot;&lt;br&gt;You can go left, right or do you climb the tree&quot;" style="rounded=1;whiteSpace=wrap;html=1;" parent="WIyWlLk6GJQsqaUBKTNV-1" vertex="1">
          <mxGeometry x="200" y="100" width="154" height="90" as="geometry" />
        </mxCell>
        <mxCell id="ti8c8m-xJgNzPXHYwZrE-14" style="edgeStyle=orthogonalEdgeStyle;rounded=0;orthogonalLoop=1;jettySize=auto;html=1;" parent="WIyWlLk6GJQsqaUBKTNV-1" source="ti8c8m-xJgNzPXHYwZrE-2" target="ti8c8m-xJgNzPXHYwZrE-13" edge="1">
          <mxGeometry relative="1" as="geometry" />
        </mxCell>
        <mxCell id="ti8c8m-xJgNzPXHYwZrE-2" value="Left&lt;br&gt;&quot;You walk the path to a sudden drop&quot;&lt;br&gt;&quot;Do you look over the edge, jump off or turn around?&quot;" style="rounded=1;whiteSpace=wrap;html=1;" parent="WIyWlLk6GJQsqaUBKTNV-1" vertex="1">
          <mxGeometry x="30" y="220" width="150" height="80" as="geometry" />
        </mxCell>
        <mxCell id="ti8c8m-xJgNzPXHYwZrE-3" value="Climb the tree&lt;br&gt;&quot;You climb the tree and find an acorn&quot;&amp;nbsp;&lt;br&gt;&quot;Acorn +1&quot;&lt;br&gt;&quot;You can continue or climb down&quot;" style="rounded=1;whiteSpace=wrap;html=1;" parent="WIyWlLk6GJQsqaUBKTNV-1" vertex="1">
          <mxGeometry x="220" y="220" width="160" height="90" as="geometry" />
        </mxCell>
        <mxCell id="ti8c8m-xJgNzPXHYwZrE-16" style="edgeStyle=orthogonalEdgeStyle;rounded=0;orthogonalLoop=1;jettySize=auto;html=1;" parent="WIyWlLk6GJQsqaUBKTNV-1" source="ti8c8m-xJgNzPXHYwZrE-13" target="ti8c8m-xJgNzPXHYwZrE-15" edge="1">
          <mxGeometry relative="1" as="geometry" />
        </mxCell>
        <mxCell id="ti8c8m-xJgNzPXHYwZrE-13" value="Look over the edge&lt;br&gt;&quot;You see the remains of a rope&quot;&amp;nbsp;&lt;br&gt;&quot;Do you pick up the rope or leave it&quot;" style="rounded=1;whiteSpace=wrap;html=1;" parent="WIyWlLk6GJQsqaUBKTNV-1" vertex="1">
          <mxGeometry x="-70" y="380" width="155" height="80" as="geometry" />
        </mxCell>
        <mxCell id="ti8c8m-xJgNzPXHYwZrE-17" style="edgeStyle=orthogonalEdgeStyle;rounded=0;orthogonalLoop=1;jettySize=auto;html=1;entryX=0;entryY=0.5;entryDx=0;entryDy=0;" parent="WIyWlLk6GJQsqaUBKTNV-1" source="ti8c8m-xJgNzPXHYwZrE-15" target="ti8c8m-xJgNzPXHYwZrE-13" edge="1">
          <mxGeometry relative="1" as="geometry" />
        </mxCell>
        <mxCell id="ti8c8m-xJgNzPXHYwZrE-15" value="Pick up the rope&lt;br&gt;&quot;You pick up the remains of the rope&quot;&lt;br&gt;&quot;Remains of rope +1&quot;&lt;br&gt;" style="rounded=1;whiteSpace=wrap;html=1;" parent="WIyWlLk6GJQsqaUBKTNV-1" vertex="1">
          <mxGeometry x="-177" y="500" width="155" height="80" as="geometry" />
        </mxCell>
        <mxCell id="ThD12zC5yq8MOeCrIUyT-5" style="edgeStyle=orthogonalEdgeStyle;rounded=0;orthogonalLoop=1;jettySize=auto;html=1;" edge="1" parent="WIyWlLk6GJQsqaUBKTNV-1" source="ThD12zC5yq8MOeCrIUyT-0" target="ThD12zC5yq8MOeCrIUyT-4">
          <mxGeometry relative="1" as="geometry" />
        </mxCell>
        <mxCell id="ThD12zC5yq8MOeCrIUyT-9" style="edgeStyle=orthogonalEdgeStyle;rounded=0;orthogonalLoop=1;jettySize=auto;html=1;exitX=0.25;exitY=1;exitDx=0;exitDy=0;" edge="1" parent="WIyWlLk6GJQsqaUBKTNV-1" source="ThD12zC5yq8MOeCrIUyT-0" target="ThD12zC5yq8MOeCrIUyT-8">
          <mxGeometry relative="1" as="geometry" />
        </mxCell>
        <mxCell id="ThD12zC5yq8MOeCrIUyT-0" value="Right:&amp;nbsp;&lt;br&gt;&quot;You see a witches hut&quot;&lt;br&gt;&quot;Do you walk in?&quot;" style="rounded=1;whiteSpace=wrap;html=1;fontSize=12;glass=0;strokeWidth=1;shadow=0;" vertex="1" parent="WIyWlLk6GJQsqaUBKTNV-1">
          <mxGeometry x="560" y="90" width="130" height="80" as="geometry" />
        </mxCell>
        <mxCell id="ThD12zC5yq8MOeCrIUyT-7" style="edgeStyle=orthogonalEdgeStyle;rounded=0;orthogonalLoop=1;jettySize=auto;html=1;" edge="1" parent="WIyWlLk6GJQsqaUBKTNV-1" source="ThD12zC5yq8MOeCrIUyT-4" target="ThD12zC5yq8MOeCrIUyT-6">
          <mxGeometry relative="1" as="geometry" />
        </mxCell>
        <mxCell id="ThD12zC5yq8MOeCrIUyT-11" style="edgeStyle=orthogonalEdgeStyle;rounded=0;orthogonalLoop=1;jettySize=auto;html=1;" edge="1" parent="WIyWlLk6GJQsqaUBKTNV-1" source="ThD12zC5yq8MOeCrIUyT-4" target="ThD12zC5yq8MOeCrIUyT-10">
          <mxGeometry relative="1" as="geometry" />
        </mxCell>
        <mxCell id="ThD12zC5yq8MOeCrIUyT-4" value="No:&amp;nbsp;&lt;br&gt;&quot;Probably smart, do you sneak around the back?&quot;" style="rounded=1;whiteSpace=wrap;html=1;fontSize=12;glass=0;strokeWidth=1;shadow=0;" vertex="1" parent="WIyWlLk6GJQsqaUBKTNV-1">
          <mxGeometry x="810" y="180" width="130" height="80" as="geometry" />
        </mxCell>
        <mxCell id="ThD12zC5yq8MOeCrIUyT-17" style="edgeStyle=orthogonalEdgeStyle;rounded=0;orthogonalLoop=1;jettySize=auto;html=1;entryX=0.5;entryY=1;entryDx=0;entryDy=0;" edge="1" parent="WIyWlLk6GJQsqaUBKTNV-1" source="ThD12zC5yq8MOeCrIUyT-6" target="ThD12zC5yq8MOeCrIUyT-4">
          <mxGeometry relative="1" as="geometry" />
        </mxCell>
        <mxCell id="ThD12zC5yq8MOeCrIUyT-6" value="Yes:&amp;nbsp;&lt;br&gt;&quot;Surely a wise choice {name}, will you peek though the opening in the back door?&quot;&amp;nbsp;" style="rounded=1;whiteSpace=wrap;html=1;fontSize=12;glass=0;strokeWidth=1;shadow=0;" vertex="1" parent="WIyWlLk6GJQsqaUBKTNV-1">
          <mxGeometry x="640" y="270" width="160" height="75" as="geometry" />
        </mxCell>
        <mxCell id="ThD12zC5yq8MOeCrIUyT-8" value="Yes:&amp;nbsp;&lt;br&gt;&quot;Curiosity killed the cat, they say. Now it has killed you too {name}&quot;&lt;br&gt;&quot;YOU DIED&quot;" style="rounded=1;whiteSpace=wrap;html=1;fontSize=12;glass=0;strokeWidth=1;shadow=0;" vertex="1" parent="WIyWlLk6GJQsqaUBKTNV-1">
          <mxGeometry x="500" y="180" width="130" height="80" as="geometry" />
        </mxCell>
        <mxCell id="ThD12zC5yq8MOeCrIUyT-12" style="edgeStyle=orthogonalEdgeStyle;rounded=0;orthogonalLoop=1;jettySize=auto;html=1;entryX=1;entryY=0.25;entryDx=0;entryDy=0;" edge="1" parent="WIyWlLk6GJQsqaUBKTNV-1" source="ThD12zC5yq8MOeCrIUyT-10" target="WIyWlLk6GJQsqaUBKTNV-3">
          <mxGeometry relative="1" as="geometry" />
        </mxCell>
        <mxCell id="ThD12zC5yq8MOeCrIUyT-10" value="Yes:&amp;nbsp;&lt;br&gt;&quot;You are back at the to the beginning&quot;" style="rounded=1;whiteSpace=wrap;html=1;fontSize=12;glass=0;strokeWidth=1;shadow=0;" vertex="1" parent="WIyWlLk6GJQsqaUBKTNV-1">
          <mxGeometry x="930" y="30" width="140" height="90" as="geometry" />
        </mxCell>
        <mxCell id="ThD12zC5yq8MOeCrIUyT-18" value="" style="rounded=1;whiteSpace=wrap;html=1;" vertex="1" parent="WIyWlLk6GJQsqaUBKTNV-1">
          <mxGeometry x="370" y="350" width="120" height="60" as="geometry" />
        </mxCell>
      </root>
    </mxGraphModel>
  </diagram>
</mxfile>
